<?xml version="1.0" encoding="utf-8"?>
<!-- Generator: Adobe Illustrator 27.0.0, SVG Export Plug-In . SVG Version: 6.00 Build 0)  -->
<svg version="1.1" id="Layer_1" xmlns="http://www.w3.org/2000/svg" xmlns:xlink="http://www.w3.org/1999/xlink" x="0px" y="0px"
	 viewBox="0 0 216 32" style="enable-background:new 0 0 216 32;" xml:space="preserve">
<style type="text/css">
	.st0{fill:#132A59;}
	.st1{fill:#132A59;stroke:#132A59;stroke-width:0.5;}
	.st2{font-family:'LeagueSpartan-Bold';}
	.st3{font-size:24px;}
</style>
<path class="st0" d="M127.7,10.7c0.8,0,1.9,0.1,3.2,0.4l0.6,0.1l-0.1,2.5c-1.3-0.1-2.2-0.2-2.8-0.2c-1.1,0-1.8,0.2-2.2,0.7
	c-0.4,0.5-0.5,1.4-0.5,2.7s0.2,2.2,0.5,2.7c0.4,0.5,1.1,0.7,2.2,0.7l2.8-0.2l0.1,2.6c-1.7,0.3-3,0.5-3.9,0.5c-1.8,0-3.1-0.5-3.8-1.5
	c-0.8-1-1.2-2.6-1.2-4.8s0.4-3.8,1.2-4.8C124.6,11.2,125.9,10.7,127.7,10.7z M134.5,12.4c0.8-1.1,2.3-1.7,4.2-1.7
	c2,0,3.4,0.6,4.2,1.7c0.8,1.1,1.3,2.6,1.3,4.6c0,4.2-1.8,6.3-5.5,6.3c-3.7,0-5.5-2.1-5.5-6.3C133.2,15,133.6,13.5,134.5,12.4z
	 M136.9,19.7c0.3,0.6,0.9,0.9,1.8,0.9c0.8,0,1.4-0.3,1.8-0.9c0.3-0.6,0.5-1.5,0.5-2.7s-0.2-2.1-0.5-2.7c-0.3-0.6-0.9-0.8-1.8-0.8
	c-0.8,0-1.4,0.3-1.8,0.8c-0.3,0.6-0.5,1.5-0.5,2.7S136.6,19.1,136.9,19.7z M149.8,23h-3.2V11h3.2v0.7c1.1-0.6,2-1,2.8-1
	c1.3,0,2.3,0.4,3,1.1c1.5-0.8,2.8-1.1,4-1.1c1.6,0,2.7,0.5,3.3,1.4c0.6,0.9,0.9,2.4,0.9,4.4V23h-3.2v-6.4c0-1-0.1-1.8-0.3-2.3
	c-0.2-0.5-0.7-0.7-1.3-0.7c-0.5,0-1.1,0.1-1.9,0.3l-0.4,0.1c0.1,1.2,0.1,2.1,0.1,2.7V23h-3.2v-6.2c0-1.2-0.1-2-0.3-2.5
	c-0.2-0.5-0.7-0.7-1.4-0.7c-0.6,0-1.2,0.1-1.8,0.3l-0.3,0.1V23z M166.7,28V11h3.2v0.6c1-0.6,2-0.9,2.7-0.9c1.6,0,2.8,0.5,3.6,1.5
	c0.8,1,1.2,2.6,1.2,4.9s-0.4,3.9-1.3,4.8c-0.8,0.9-2.2,1.3-4.2,1.3c-0.5,0-1.1,0-1.7-0.1l-0.3,0V28H166.7z M172,13.6
	c-0.6,0-1.2,0.1-1.8,0.4l-0.3,0.1v6.3c0.7,0.1,1.3,0.1,1.8,0.1c0.9,0,1.6-0.3,1.9-0.8c0.4-0.5,0.5-1.5,0.5-2.8
	C174.1,14.7,173.4,13.6,172,13.6z M189,14.7v5c0,0.4,0.1,0.7,0.2,0.8c0.1,0.1,0.3,0.2,0.6,0.3l-0.1,2.4c-0.8,0-1.5-0.1-2-0.2
	c-0.5-0.1-1-0.3-1.5-0.7c-1.2,0.6-2.3,0.8-3.5,0.8c-2.5,0-3.7-1.3-3.7-3.9c0-1.3,0.3-2.2,1-2.7c0.7-0.5,1.7-0.9,3.2-1l2.6-0.2v-0.7
	c0-0.5-0.1-0.8-0.3-1c-0.2-0.2-0.6-0.3-1.1-0.3l-4.5,0.2l-0.1-2.2c1.7-0.5,3.3-0.7,4.9-0.7c1.6,0,2.7,0.3,3.3,1
	C188.6,12.3,189,13.3,189,14.7z M183.6,17.9c-0.9,0.1-1.3,0.6-1.3,1.4c0,0.9,0.4,1.3,1.2,1.3c0.6,0,1.3-0.1,2-0.3l0.4-0.1v-2.6
	L183.6,17.9z M200.7,14c-2-0.3-3.4-0.4-4.2-0.4c-0.8,0-1.3,0.1-1.5,0.2c-0.2,0.1-0.3,0.4-0.3,0.7c0,0.3,0.2,0.5,0.5,0.6
	c0.3,0.1,1.1,0.3,2.4,0.5c1.3,0.2,2.2,0.6,2.8,1.1c0.5,0.5,0.8,1.4,0.8,2.6c0,2.6-1.6,3.9-4.8,3.9c-1.1,0-2.3-0.1-3.8-0.4l-0.8-0.1
	l0.1-2.7c2,0.3,3.4,0.4,4.1,0.4c0.8,0,1.3-0.1,1.6-0.2c0.3-0.2,0.4-0.4,0.4-0.7c0-0.3-0.2-0.5-0.5-0.7c-0.3-0.1-1.1-0.3-2.3-0.5
	c-1.2-0.2-2.2-0.6-2.8-1.1c-0.6-0.5-0.9-1.4-0.9-2.6c0-1.3,0.4-2.2,1.3-2.9c0.9-0.7,2-1,3.3-1c0.9,0,2.2,0.2,3.9,0.5l0.8,0.1
	L200.7,14z M212,14c-2-0.3-3.4-0.4-4.2-0.4c-0.8,0-1.3,0.1-1.5,0.2c-0.2,0.1-0.3,0.4-0.3,0.7c0,0.3,0.2,0.5,0.5,0.6
	c0.3,0.1,1.1,0.3,2.4,0.5c1.3,0.2,2.2,0.6,2.8,1.1c0.5,0.5,0.8,1.4,0.8,2.6c0,2.6-1.6,3.9-4.8,3.9c-1.1,0-2.3-0.1-3.8-0.4l-0.8-0.1
	L203,20c2,0.3,3.4,0.4,4.1,0.4c0.8,0,1.3-0.1,1.6-0.2c0.3-0.2,0.4-0.4,0.4-0.7c0-0.3-0.2-0.5-0.5-0.7c-0.3-0.1-1.1-0.3-2.3-0.5
	c-1.2-0.2-2.2-0.6-2.8-1.1s-0.9-1.4-0.9-2.6c0-1.3,0.4-2.2,1.3-2.9c0.9-0.7,2-1,3.3-1c0.9,0,2.2,0.2,3.9,0.5l0.8,0.1L212,14z"/>
<path class="st1" d="M16,0.8C7.6,0.8,0.8,7.6,0.8,16c0,8.4,6.8,15.2,15.2,15.2c8.4,0,15.2-6.8,15.2-15.2C31.2,7.6,24.4,0.8,16,0.8z
	 M16,29.2C8.7,29.2,2.8,23.3,2.8,16C2.8,8.7,8.7,2.8,16,2.8c7.3,0,13.2,5.9,13.2,13.2C29.2,23.3,23.3,29.2,16,29.2z"/>
<path class="st0" d="M22.7,8.8l-9.5,3.4c-0.4,0.1-0.8,0.5-0.9,0.9l-3.5,9.5C8.7,23,9,23.3,9.3,23.2l9.5-3.5c0.4-0.1,0.8-0.5,0.9-0.9
	l3.5-9.5C23.3,9,23,8.7,22.7,8.8z M11.1,20.9l2.3-6.4l4.1,4.1L11.1,20.9z M18.6,17.5l-4.1-4.1l6.5-2.3L18.6,17.5z"/>
<text transform="matrix(1 0 0 1 36.1987 23.5236)" class="st0 st2 st3">crypto</text>
</svg>
